PathFileType	3	(X/Y/Z)	RCH0000002 BBF 10.c3d
DataRate	CameraRate	NumFrames	NumMarkers	Units	OrigDataRate	OrigDataStartFrame	OrigNumFrames
100.0	100.0	12	23	mm	100.0	282	464
Frame#	Time	MAN			RASI			LKNE			LANK			LHEE			LTOE			RPAT			RKNE			RANK			RMED			RHEE			RTOE			LPAT			RPSI			LMED			LASI			T2			LPSI			T10			RTHI			LTHI			RTIB			LTIB			
		X1	Y1	Z1	X2	Y2	Z2	X3	Y3	Z3	X4	Y4	Z4	X5	Y5	Z5	X6	Y6	Z6	X7	Y7	Z7	X8	Y8	Z8	X9	Y9	Z9	X10	Y10	Z10	X11	Y11	Z11	X12	Y12	Z12	X13	Y13	Z13	X14	Y14	Z14	X15	Y15	Z15	X16	Y16	Z16	X17	Y17	Z17	X18	Y18	Z18	X19	Y19	Z19	X20	Y20	Z20	X21	Y21	Z21	X22	Y22	Z22	X23	Y23	Z23	

282	2.810	-493.33330	42.38587	940.02713	-497.96530	-108.03630	635.63336	-511.49941	78.45954	337.90216	-564.01376	90.42637	68.03094	-607.57509	53.86791	98.02008	-518.16034	50.28387	65.92281	-526.73397	-52.20212	335.94345	-585.51389	-102.05958	320.23816	-779.21120	-113.05994	128.38032	-781.40512	-46.00888	146.33881	-789.77931	-84.64503	184.62013	-763.65370	-72.78548	87.12903	-476.47941	17.70165	381.44459	-607.98766	-62.18152	694.99785	-568.79962	20.53895	84.76281	-510.48156	67.77247	639.35509	-622.67164	18.99387	961.55496	-615.28166	9.27010	694.83285	-593.01707	-15.83239	780.55007	-548.43043	-174.83946	423.53307	-529.11268	149.94827	460.58047	-664.89114	-173.27398	241.10309	-527.68879	146.56202	225.24937	
283	2.820	-483.28253	41.00818	943.30520	-486.31870	-105.75454	637.65595	-512.06000	81.41142	339.21976	-564.57986	90.58039	68.90841	-607.62466	53.76600	99.33983	-518.24170	51.00503	66.56172	-506.65346	-50.16936	339.22154	-564.94435	-100.42505	322.16170	-759.67828	-113.76881	132.48156	-761.67296	-46.29792	149.18449	-770.50309	-84.25751	188.07044	-743.00757	-74.43091	90.89992	-475.12569	21.03437	381.99217	-597.18576	-62.56100	697.74986	-568.23668	20.83368	86.13249	-502.46709	69.89445	642.39365	-612.20569	16.49969	965.04021	-605.66973	8.74984	698.32708	-582.78798	-16.93027	783.76663	-530.45314	-173.16000	426.35206	-527.11908	152.41873	462.51553	-644.57793	-172.47270	245.02610	-529.81680	148.59950	225.78987	
284	2.830	-473.31370	39.61963	946.51907	-474.98636	-103.46732	639.95853	-512.51361	83.80067	340.51544	-565.12858	90.25894	69.87619	-607.54178	53.05024	100.67691	-518.19186	51.39155	67.22513	-486.53803	-48.10113	343.17890	-544.18832	-98.84297	324.61037	-739.10173	-114.56286	136.19600	-741.13886	-46.73855	151.76412	-750.56975	-84.11660	191.10214	-721.11361	-76.03598	94.55204	-473.77506	23.79893	382.54634	-586.67281	-62.74173	700.45884	-567.45818	20.64450	87.46911	-494.68551	71.93528	645.23653	-601.81580	14.03174	968.61872	-596.29582	8.37936	701.58542	-572.94733	-17.77360	786.95369	-512.50545	-171.54881	429.67106	-525.06449	154.44364	464.31762	-623.66555	-171.74342	249.00955	-532.05671	150.07838	226.42661	
285	2.840	-463.38409	38.25537	949.55208	-463.93831	-101.20266	642.40252	-512.72886	85.66381	341.75376	-565.63072	89.57726	70.91156	-607.30998	51.86073	102.03145	-518.01655	51.51988	67.88989	-466.39685	-46.03108	347.69699	-523.26896	-97.32046	327.49072	-717.51026	-115.41903	139.41244	-719.82334	-47.31043	153.98931	-729.95341	-84.21369	193.62460	-698.07466	-77.55934	97.96059	-472.28528	26.06692	383.07210	-576.42632	-62.79757	703.01562	-566.49941	20.08769	88.76605	-487.12456	73.86125	647.82647	-591.47719	11.67739	972.16690	-587.15175	8.08557	704.52174	-563.44883	-18.39246	790.01039	-494.61027	-170.01771	433.37972	-522.89870	156.04066	465.95783	-602.17627	-171.08122	252.93103	-534.23781	151.05952	227.13862	
286	2.850	-453.44998	36.94291	952.29633	-453.14248	-98.98062	644.84861	-512.62064	87.07705	342.90729	-566.05401	88.67600	71.98442	-606.92037	50.37270	103.39585	-517.72351	51.48509	68.53426	-446.24139	-43.98612	352.65664	-502.20711	-95.85978	330.70902	-694.94183	-116.31175	142.05547	-697.74434	-47.98582	155.78973	-708.63469	-84.52461	195.57093	-673.99351	-78.96974	101.02991	-470.55223	27.94515	383.53633	-566.42292	-62.80767	705.32204	-565.40254	19.30520	90.01758	-479.77782	75.64608	650.12337	-581.16228	9.51175	975.57101	-578.23136	7.79020	707.06865	-554.24272	-18.82894	792.85008	-476.77586	-168.56911	437.36746	-520.60814	157.25556	467.42482	-580.14191	-170.47688	256.69351	-536.20952	151.64276	227.90189	
287	2.860	-443.46879	35.70123	954.65784	-442.56761	-96.81556	647.16592	-512.14962	88.13992	343.95602	-566.36951	87.70158	73.05908	-606.37401	48.77259	104.75450	-517.32379	51.38672	69.13775	-426.09063	-41.98453	357.94610	-481.02527	-94.45829	334.17835	-671.44252	-117.21531	144.08787	-674.91700	-48.73256	157.11600	-686.60467	-85.01297	196.90024	-648.96607	-80.24774	103.69856	-468.51643	29.55339	383.90812	-556.63895	-62.84901	707.29539	-564.21328	18.44480	91.21660	-472.64013	77.27001	652.10379	-570.84174	7.59329	978.73210	-569.52739	7.41768	709.17927	-545.27793	-19.13319	795.40336	-459.00062	-167.19655	441.53148	-518.20411	158.15136	468.72119	-557.60530	-169.91820	260.23103	-537.85419	151.94909	228.68983	
288	2.870	-433.40115	34.54061	956.56076	-432.18525	-94.71892	649.23994	-511.31717	88.95876	344.88709	-566.55806	86.78762	74.09776	-605.68343	47.23469	106.08606	-516.83341	51.31587	69.68181	-405.97561	-40.03552	363.46658	-459.75208	-93.10868	337.82321	-647.06413	-118.10546	145.50827	-651.35392	-49.51681	157.93988	-663.86637	-85.63419	197.59666	-623.07680	-81.38515	105.93953	-466.16316	31.00439	384.16025	-547.05086	-62.98983	708.87141	-562.97763	17.64160	92.35405	-465.70280	78.71868	653.75966	-560.48563	5.96083	981.56967	-561.02843	6.90212	710.82751	-536.50371	-19.35937	797.61976	-441.28015	-165.88620	445.78237	-515.70949	158.79769	469.85924	-534.62066	-169.39120	263.50949	-539.09636	152.10252	229.47495	
289	2.880	-423.21247	33.46307	957.95028	-421.97080	-92.70199	650.97843	-510.15641	89.63252	345.69465	-566.61481	86.04016	75.06488	-604.87245	45.90177	107.36716	-516.27419	51.34500	70.15090	-385.94296	-38.13995	369.13443	-438.42712	-91.79943	341.58143	-621.86138	-118.96021	146.34471	-627.06644	-50.30529	158.25201	-640.43445	-86.33992	197.66547	-596.39708	-82.38225	107.75609	-463.51639	32.38914	384.27110	-537.63524	-63.28447	710.00594	-561.73887	17.00361	93.41971	-458.94917	79.98218	655.09607	-550.06449	4.63194	984.02362	-552.71655	6.19289	712.00717	-527.87075	-19.56165	799.46800	-423.61561	-164.61947	450.04635	-513.14634	159.26183	470.85679	-511.25292	-168.88105	266.52273	-539.90667	152.21415	230.23139	
290	2.890	-412.87415	32.46330	958.79426	-411.90344	-90.77818	652.31501	-508.72100	90.24234	346.37971	-566.55077	85.52840	75.93134	-603.97396	44.87201	108.57659	-515.67332	51.52162	70.53374	-366.05721	-36.29228	374.88009	-417.10525	-90.51579	345.40301	-595.88944	-119.75992	146.64542	-602.06749	-51.06701	158.05805	-616.33405	-87.08269	197.12716	-568.98684	-83.24354	109.17409	-460.62781	33.76861	384.22632	-528.36856	-63.77002	710.67501	-560.53450	16.60274	94.40389	-452.35129	81.05440	656.12881	-539.55037	3.60288	986.05471	-544.56568	5.25842	712.72973	-519.33177	-19.79073	800.93485	-406.02178	-163.37619	454.26419	-510.52625	159.60230	471.73356	-487.57618	-168.37270	269.28487	-540.29985	152.37037	230.93777	
291	2.900	-402.36435	31.52993	959.08339	-401.96495	-88.96424	653.21027	-507.07271	90.84569	346.94955	-566.39107	85.28154	76.67806	-603.02599	44.19347	109.69924	-515.06117	51.86614	70.82443	-346.40149	-34.48281	380.64378	-395.85988	-89.24098	349.24617	-569.20294	-120.48691	146.46829	-576.37640	-51.77478	157.37363	-591.59988	-87.82036	196.01058	-540.89970	-83.97282	110.23224	-457.56271	35.17187	384.01982	-519.22655	-64.46484	710.87357	-559.39357	16.47182	95.29950	-445.86785	81.93276	656.88146	-528.91780	2.84983	987.64355	-536.54099	4.08772	713.02115	-510.84164	-20.09106	802.02294	-388.53312	-162.13774	458.38699	-507.84409	159.86523	472.50828	-463.67175	-167.85132	271.81982	-540.32653	152.62631	231.57991	
292	2.910	-391.66826	30.64687	958.83005	-392.13786	-87.28036	653.65048	-505.26892	91.47487	347.41673	-566.17032	85.29154	77.29840	-602.06658	43.86589	110.72904	-514.46801	52.37358	71.02308	-327.07636	-32.69984	386.36876	-374.78456	-87.95762	353.07127	-541.85753	-121.12494	145.87058	-550.02565	-52.40634	156.21908	-566.27685	-88.52003	194.34608	-512.19111	-84.56882	110.97170	-454.38516	36.59951	383.65387	-510.18322	-65.36893	710.61306	-558.33454	16.60713	96.10391	-439.44372	82.61835	657.38252	-518.14461	2.33119	988.78835	-528.59916	2.68994	712.91794	-502.35715	-20.49879	802.74756	-371.20639	-160.88965	462.36996	-505.07534	160.08334	473.19677	-439.62600	-167.30243	274.14965	-540.06016	153.00463	232.15269	
293	2.920	-380.77802	29.79478	958.06599	-382.40309	-85.74888	653.64424	-503.35138	92.13915	347.79749	-565.92608	85.52042	77.79922	-601.12821	43.84870	111.67084	-513.91995	53.01836	71.13595	-308.19656	-30.93117	391.99334	-353.99210	-86.64927	356.83371	-513.91467	-121.65871	144.90001	-523.06938	-52.94522	154.61454	-540.42292	-89.16086	192.15978	-482.92889	-85.02221	111.42649	-451.14433	38.03048	383.13801	-501.20969	-66.46577	709.91820	-557.36395	16.97515	96.82041	-433.01105	83.11631	657.66248	-507.21272	1.99070	989.50190	-520.68928	1.09211	712.46297	-493.83654	-21.04069	803.13293	-354.11879	-159.62310	466.16551	-502.17609	160.27692	473.81073	-415.52888	-166.71210	276.28358	-539.58093	153.49902	232.66081	
